<?xml version="1.0" encoding="UTF-8"?><svg viewBox="0 0 1440 320" xmlns="http://www.w3.org/2000/svg"><defs><style type="text/css">.hi{font:normal 50px Bangers;fill:#000}.name{font:normal 86px bangers;fill:#2283d2}.wave1{animation:wave 8s linear infinite}.wave2{animation:wave2 12s linear infinite}.wave3{animation:wave3 10s linear infinite}@keyframes wave{0%{transform:translateX(0)}100%{transform:translateX(100%)}}@keyframes wave2{0%{transform:scaleY(1.2) translateX(0)}100%{transform:scaleY(1.2) translateX(100%)}}@keyframes wave3{0%{transform:scaleY(.8) translateX(0)}100%{transform:scaleY(.8) translateX(100%)}}</style></defs><def><path d="m0 160c320 140 420 140 740 0s380-140 700 0v-160h-1440" fill="#09f" fill-opacity=".2"></path></def><use class="wave1" x="-100%" href="#sinewave"/><use class="wave1" href="#sinewave"/><use class="wave2" x="-100%" href="#sinewave"/><use class="wave2" href="#sinewave"/><use class="wave3" x="-100%" href="#sinewave"/><use class="wave3" href="#sinewave"/><def fill-rule="evenodd" font-size="9pt" stroke-linecap="round"><g><path d="m67.7 35.85-7.7 1.6q1.4-7 2.7-13.65 0.5-2.85 1.05-5.925t1.025-6.075a774.17 774.17 0 0 0 0.793-5.116 705.66 705.66 0 0 0 0.107-0.709 148.38 148.38 0 0 0 0.381-2.694 108.21 108.21 0 0 0 0.294-2.431 72.455 72.455 0 0 1 1.106 0.056 56.75 56.75 0 0 1 1.019 0.069q0.975 0.075 1.925 0.125t1.925 0.075a73.559 73.559 0 0 0 1.019 0.019 94.144 94.144 0 0 0 1.106 6e-3q-0.85 3.55-1.675 7.1t-1.525 7.15l4.95-0.55a233.55 233.55 0 0 0 0.966-5.198 209.81 209.81 0 0 0 0.284-1.677q0.55-3.325 1.45-6.875 1.15-0.2 2.55-0.325a497.57 497.57 0 0 1 1.35-0.119 394.79 394.79 0 0 1 1.25-0.106 388.18 388.18 0 0 0 0.847-0.071q0.662-0.057 1.178-0.104l0.825-0.075a64.214 64.214 0 0 0-0.764 2.666 80.763 80.763 0 0 0-0.561 2.259q-0.625 2.675-1.225 5.55t-1.15 5.825-1 5.6q-1.1 6.35-2.05 13l-7.8 0.9a151.12 151.12 0 0 0 1.087-5.493 138.21 138.21 0 0 0 0.063-0.357 806.53 806.53 0 0 0 0.764-3.713 906.71 906.71 0 0 0 0.261-1.287q0.361-1.787 0.616-3.221a83.027 83.027 0 0 0 0.209-1.229l-4.85 0.45q-0.35 1.9-0.825 4.4a443.55 443.55 0 0 0-0.456 2.437 377.51 377.51 0 0 0-0.419 2.313l-1.1 5.4zm-60 0-7.7 1.6q1.3-6.9 2.55-13.55a280.02 280.02 0 0 1 0.731-4.327 315.79 315.79 0 0 1 0.269-1.498q0.55-3.025 1.05-5.975a823.75 823.75 0 0 0 0.837-5.029 749.67 749.67 0 0 0 0.113-0.696q0.45-2.775 0.8-5.075l8.1-0.55a297.9 297.9 0 0 0-1.261 5.419 333.9 333.9 0 0 0-0.414 1.881 349.69 349.69 0 0 0-1.437 6.949 319.91 319.91 0 0 0-0.088 0.451l4.95-0.55a233.55 233.55 0 0 0 0.966-5.198 209.81 209.81 0 0 0 0.284-1.677q0.55-3.325 1.45-6.875 1.15-0.2 2.55-0.325a497.57 497.57 0 0 1 1.35-0.119 394.79 394.79 0 0 1 1.25-0.106 388.18 388.18 0 0 0 0.847-0.071q0.662-0.057 1.178-0.104l0.825-0.075a64.214 64.214 0 0 0-0.764 2.666 80.763 80.763 0 0 0-0.561 2.259q-0.625 2.675-1.225 5.55t-1.15 5.825-1 5.6q-1.1 6.35-2.05 13l-7.8 0.9a151.12 151.12 0 0 0 1.087-5.493 138.21 138.21 0 0 0 0.063-0.357 806.53 806.53 0 0 0 0.764-3.713 906.71 906.71 0 0 0 0.261-1.287q0.361-1.787 0.616-3.221a83.027 83.027 0 0 0 0.209-1.229l-4.85 0.45q-0.35 1.9-0.825 4.4t-0.875 4.75l-1.1 5.4zm99.3-0.55-8.1 2.1q1.35-6.65 2.6-13a267.63 267.63 0 0 1 0.731-4.177 303.12 303.12 0 0 1 0.269-1.448q0.55-2.925 1.025-5.8t0.9-5.55a129.61 129.61 0 0 0 0.381-2.556 95.849 95.849 0 0 0 0.294-2.319 33.694 33.694 0 0 1 4.131-1.013 39.694 39.694 0 0 1 2.019-0.312q3.3-0.425 6.55-0.425a13.973 13.973 0 0 1 1.314 0.058q0.65 0.062 1.202 0.188a6.499 6.499 0 0 1 0.709 0.204 5.69 5.69 0 0 1 0.994 0.456 4.077 4.077 0 0 1 1.006 0.819q0.725 0.825 1.025 1.925a8.331 8.331 0 0 1 0.243 1.317 10.777 10.777 0 0 1 0.057 1.133q0 2-0.7 3.925t-1.875 3.65-2.7 3.15a14.626 14.626 0 0 1-2.949 2.152 13.637 13.637 0 0 1-0.326 0.173 274.92 274.92 0 0 1 0.931 2.094 352 352 0 0 1 0.994 2.281 484.61 484.61 0 0 1 0.994 2.319 414.53 414.53 0 0 1 0.931 2.206q1 2.5 2.05 5l-7.75 2.7q-1-3.2-1.8-6a143.76 143.76 0 0 1-0.656-2.222 156.81 156.81 0 0 1-0.044-0.153 218.15 218.15 0 0 1-0.337-1.194 184.71 184.71 0 0 1-0.313-1.131 59.765 59.765 0 0 1-0.259-0.982q-0.118-0.462-0.214-0.876a34.904 34.904 0 0 1-0.027-0.117 18.062 18.062 0 0 1-0.11-0.515q-0.106-0.532-0.14-0.91l-0.65 0.2q-0.3 1.6-0.725 3.75a198.48 198.48 0 0 0-0.595 3.141 176.84 176.84 0 0 0-0.18 1.009q-0.45 2.35-0.9 4.75zm-8.8-0.4-16.15 2.5 6.55-35.55 15.8-1.35q-0.35 1.1-0.6 2.25a48.691 48.691 0 0 0-0.418 1.72 53.71 53.71 0 0 0-0.057 0.255 75.643 75.643 0 0 0-0.183 0.854q-0.081 0.391-0.148 0.742a43.627 43.627 0 0 0-0.044 0.229 10.114 10.114 0 0 1-0.277 0.023q-0.454 0.033-1.148 0.052-0.925 0.025-1.975 0.05t-2.125 0.025h-1.875l-1.75 8.95q1.55-0.1 2.9-0.15 1.1-0.05 2.25-0.05 1.129 0 1.68-0.048a6.036 6.036 0 0 0 0.02-2e-3q-0.2 1.4-0.375 2.75t-0.425 2.75a8.881 8.881 0 0 1-0.289 0.023q-0.468 0.032-1.253 0.05a63.227 63.227 0 0 1-0.083 2e-3q-1.125 0.025-2.275 0.075-1.3 0.05-2.85 0.1l-1.7 9.2 7.3-1.15-0.5 5.7zm39.25 0-16.15 2.5 6.55-35.55 15.8-1.35q-0.35 1.1-0.6 2.25a48.691 48.691 0 0 0-0.418 1.72 53.71 53.71 0 0 0-0.057 0.255 75.643 75.643 0 0 0-0.183 0.854q-0.081 0.391-0.148 0.742a43.627 43.627 0 0 0-0.044 0.229 10.114 10.114 0 0 1-0.277 0.023q-0.454 0.033-1.148 0.052-0.925 0.025-1.975 0.05t-2.125 0.025h-1.875l-1.75 8.95q1.55-0.1 2.9-0.15 1.1-0.05 2.25-0.05 1.129 0 1.68-0.048a6.036 6.036 0 0 0 0.02-2e-3q-0.2 1.4-0.375 2.75t-0.425 2.75a8.881 8.881 0 0 1-0.289 0.023q-0.468 0.032-1.253 0.05a63.227 63.227 0 0 1-0.083 2e-3q-1.125 0.025-2.275 0.075-1.3 0.05-2.85 0.1l-1.7 9.2 7.3-1.15-0.5 5.7zm-82.45 1.1-9 1.4q1.15-5.5 2.2-10.85 0.45-2.25 0.9-4.7t0.875-4.825a149.54 149.54 0 0 0 0.581-3.478 134.45 134.45 0 0 0 0.169-1.122 443.44 443.44 0 0 0 0.306-2.131 335.58 335.58 0 0 0 0.269-1.944q-1.15-0.15-2.325-0.1t-2.325-0.3a23.836 23.836 0 0 0 0.034-0.748q0.016-0.511 0.016-1.102 0-1.05 0.05-2.1 0.05-1.15 0.1-2.45 1.3 0.1 2.6 0.15t2.6 0.05a96.257 96.257 0 0 0 3.727-0.07 86.671 86.671 0 0 0 1.198-0.055q2.375-0.125 4.4-0.3t3.975-0.425l-0.55 2.7q-0.25 1.15-0.475 2.35a63.256 63.256 0 0 1-0.165 0.851q-0.135 0.668-0.26 1.199-1.1 0.3-2.225 0.425t-2.225 0.325q-0.35 1.7-0.75 3.775a184.08 184.08 0 0 0-0.681 3.746 202.89 202.89 0 0 0-0.094 0.554q-0.375 2.225-0.725 4.525t-0.7 4.4a354.26 354.26 0 0 0-1.323 8.93 389.71 389.71 0 0 0-0.177 1.32zm-26.9-33.65 7.8-1.25q-1.15 6.7-2.25 13.15a2206.2 2206.2 0 0 0-0.689 4.238 2447.3 2447.3 0 0 0-0.236 1.462q-0.475 2.95-0.95 5.85a347.34 347.34 0 0 0-0.774 4.941 314.82 314.82 0 0 0-0.101 0.684q-0.4 2.725-0.75 4.925a5.74 5.74 0 0 0-0.239 6e-3q-0.501 0.021-1.536 0.119a90.06 90.06 0 0 0-2.55 0.278 98.322 98.322 0 0 0-0.175 0.022q-1.378 0.172-2.489 0.32a200.67 200.67 0 0 0-0.036 5e-3 59.437 59.437 0 0 0-0.265 0.036q-0.864 0.119-0.958 0.163a0.075 0.075 0 0 0-2e-3 1e-3 136.63 136.63 0 0 0 0.506-2.269 182.38 182.38 0 0 0 0.519-2.506 648.09 648.09 0 0 0 0.802-4.078 740.01 740.01 0 0 0 0.273-1.422q0.55-2.875 1.05-5.825t0.95-5.7q1.05-6.4 2.1-13.15zm119.95 23.15q-1.45 0-2.9 0.1l-2.9 0.2q1.55-6.15 3.025-12.25t3.075-12.25q0.816-0.129 1.836-0.258a86.952 86.952 0 0 1 0.339-0.042q1.225-0.15 2.475-0.35a78.369 78.369 0 0 1 2.13-0.312 70.887 70.887 0 0 1 0.295-0.038q1.175-0.15 1.975-0.3-2.7 6.3-4.925 12.675t-4.425 12.825zm0.5 7.85q0 0.95-0.425 1.9t-1.225 1.675a5.311 5.311 0 0 1-1.14 0.781 6.902 6.902 0 0 1-0.86 0.369 7.189 7.189 0 0 1-1.417 0.338 9.726 9.726 0 0 1-1.333 0.087 4.754 4.754 0 0 1-1.162-0.137 4.043 4.043 0 0 1-0.738-0.263 3.937 3.937 0 0 1-0.915-0.59 3.454 3.454 0 0 1-0.46-0.485q-0.525-0.675-0.825-1.525a5.121 5.121 0 0 1-0.297-1.527 4.82 4.82 0 0 1-3e-3 -0.173q0-0.95 0.3-1.825t0.925-1.55 1.55-1.125q0.884-0.43 2.111-0.449a7.369 7.369 0 0 1 0.114-1e-3q1.908 0 3.188 0.595a4.317 4.317 0 0 1 1.162 0.78 5.091 5.091 0 0 1 0.912 1.131 3.903 3.903 0 0 1 0.538 1.994zm-36.3-25.6-1.6 7.95q0.95-0.1 2.325-0.8t2.625-1.675a16.127 16.127 0 0 0 1.361-1.184 13.143 13.143 0 0 0 0.789-0.841 5.806 5.806 0 0 0 0.425-0.556q0.475-0.713 0.475-1.294a1.4 1.4 0 0 0-0.049-0.381 1.05 1.05 0 0 0-0.301-0.494 1.823 1.823 0 0 0-0.381-0.268q-0.185-0.099-0.411-0.175a3.563 3.563 0 0 0-0.183-0.057q-0.625-0.175-1.375-0.225a23.04 23.04 0 0 0-1.351-0.049 25.303 25.303 0 0 0-0.199-1e-3q-0.55 0-1.125 0.025t-1.025 0.025z" vector-effect="non-scaling-stroke"/></g><g><path d="m48.45 36.9-8.25 0.55q2.2-6.65 4.2-13.05 0.85-2.7 1.75-5.65t1.8-5.85a281.58 281.58 0 0 0 1.28-4.237 250.33 250.33 0 0 0 0.395-1.363q0.775-2.7 1.375-5a45.06 45.06 0 0 0 3.639-0.142 38.322 38.322 0 0 0 1.561-0.158q2.45-0.3 5.3-0.55-0.145 1.065-0.314 2.387a384.97 384.97 0 0 0-0.011 0.088 126.05 126.05 0 0 1-0.291 2.133 144.1 144.1 0 0 1-0.109 0.742q-0.225 1.5-0.475 3.1-0.224 1.431-0.527 3.583a467.45 467.45 0 0 0-0.073 0.517q-0.35 2.5-0.95 6.25h0.65q1.45-3.8 2.4-6.325t1.55-4.125 1.225-3.125 1.2-2.9a68.122 68.122 0 0 1 0.489-1.141q0.229-0.52 0.444-0.982a39.821 39.821 0 0 1 0.142-0.302 45.554 45.554 0 0 0 1.504-0.145 37.914 37.914 0 0 0 0.846-0.105q1.1-0.15 2.2-0.325t2.225-0.35a76.187 76.187 0 0 0 1.181-0.194 100.85 100.85 0 0 0 1.294-0.231q-0.5 2.9-0.95 5.95t-0.8 6.075-0.675 5.975a390.56 390.56 0 0 0-0.306 2.875 331.74 331.74 0 0 0-0.269 2.725q-0.6 6.2-1.05 12.1l-8.7 1.55a3.769 3.769 0 0 1 3e-3 -0.124q0.01-0.306 0.063-1.088a132.88 132.88 0 0 1 9e-3 -0.138 195.58 195.58 0 0 1 0.063-0.895q0.059-0.805 0.137-1.805 0.125-1.6 0.35-3.55l0.45-3.9a181.23 181.23 0 0 1 0.413-3.317 164.56 164.56 0 0 1 0.062-0.458q0.191-1.397 0.383-2.487a40.402 40.402 0 0 1 0.117-0.638h-0.45q-0.7 2.1-1.55 4.425t-1.725 4.725-1.725 4.7-1.5 4.4a132.28 132.28 0 0 0-1.242 0.041q-0.977 0.037-1.758 0.084-1.074 0.064-2.444 0.147a6864.4 6864.4 0 0 0-0.456 0.028l1.6-18.55h-0.75a8.505 8.505 0 0 1-0.069 0.38q-0.117 0.583-0.37 1.559a67.952 67.952 0 0 1-0.061 0.236 889.56 889.56 0 0 1-0.374 1.421q-0.256 0.968-0.551 2.079a268.92 268.92 0 0 1-0.83 3.047 301.74 301.74 0 0 1-0.295 1.053 937.76 937.76 0 0 1-0.581 2.05 748.19 748.19 0 0 1-0.544 1.9 546.29 546.29 0 0 1-0.252 0.872q-0.36 1.247-0.623 2.128a498.69 498.69 0 0 1-0.083 0.278q-0.256 0.857-0.31 1.027a2.118 2.118 0 0 1-7e-3 0.02zm-14.55-7.7h-4.35l-2 7.2a102.33 102.33 0 0 1-0.881 0.116q-0.781 0.1-1.719 0.209a2487.8 2487.8 0 0 1-1.45 0.169 2007.3 2007.3 0 0 1-1.35 0.156q-1.6 0.2-3.15 0.4 2-6.65 3.95-13.1a19786 19786 0 0 1 1.242-4.191 22556 22556 0 0 1 0.433-1.459q0.875-2.95 1.75-5.875a2314.5 2314.5 0 0 0 1.27-4.261 2047.7 2047.7 0 0 0 0.405-1.364q0.8-2.7 1.4-4.95 3.4-0.25 6.925-0.6t6.875-0.95a129.62 129.62 0 0 0-0.077 0.848q-0.115 1.324-0.244 3.071a357.84 357.84 0 0 0-4e-3 0.056 229.92 229.92 0 0 0-0.169 2.481 293.66 293.66 0 0 0-0.156 2.694q-0.15 2.8-0.3 5.85t-0.3 6q-0.25 6.9-0.55 14.65-1.5 0.25-3 0.4-1.25 0.2-2.75 0.45l-2.7 0.45q0.2-1.65 0.4-3.25 0.15-1.4 0.275-2.8a313.74 313.74 0 0 1 0.09-0.994q0.073-0.781 0.135-1.406zm-26.7-26.45 7.8-1.25q-1.3 6.7-2.6 13.15-0.55 2.75-1.125 5.7t-1.1 5.85a512.6 512.6 0 0 1-0.984 5.284 467.23 467.23 0 0 1-0.066 0.341q-0.525 2.725-0.925 4.925-0.368 0-1.302 0.083a65.692 65.692 0 0 0-0.448 0.042 92.715 92.715 0 0 0-2.006 0.216 104.02 104.02 0 0 0-0.694 0.084q-1.378 0.172-2.489 0.32a200.67 200.67 0 0 0-0.036 5e-3 59.437 59.437 0 0 0-0.265 0.036q-0.864 0.119-0.958 0.163a0.075 0.075 0 0 0-2e-3 1e-3 90.645 90.645 0 0 0 0.6-2.269 120.05 120.05 0 0 0 0.6-2.506 512.54 512.54 0 0 0 0.914-4.078 584.62 584.62 0 0 0 0.311-1.422q0.625-2.875 1.2-5.825a1203.8 1203.8 0 0 1 0.987-5.009 1084.5 1084.5 0 0 1 0.138-0.691q1.25-6.4 2.45-13.15zm26.65 8.9-3.1 12.55q0.2 0 0.725-0.025t1.1-0.05 1.075-0.05a9.933 9.933 0 0 0 0.231-0.014q0.312-0.023 0.462-0.059a0.897 0.897 0 0 0 7e-3 -2e-3 3.896 3.896 0 0 1 5e-3 -0.177q0.012-0.272 0.059-0.736a32.07 32.07 0 0 1 0.011-0.112 62.131 62.131 0 0 0 0.07-0.724q0.035-0.38 0.07-0.804a104.35 104.35 0 0 0 0.01-0.122 183.64 183.64 0 0 1 0.081-0.969 238.38 238.38 0 0 1 0.094-1.056q0.1-1.1 0.2-2.15 0.2-2.55 0.5-5.5l0.3-4.35-0.75 0.05-1.15 4.3z" vector-effect="non-scaling-stroke"/></g><g fill="#2283d2"><path d="m325.94 62.006-12.556 2.924a3102.1 3102.1 0 0 0 4.317-21.079 2806.4 2806.4 0 0 0 0.585-2.915 817.99 817.99 0 0 1 1.604-8.992 906.13 906.13 0 0 1 0.245-1.328q0.989-5.332 1.849-10.535a506.32 506.32 0 0 0 1.193-7.563 442.24 442.24 0 0 0 0.355-2.413 189.22 189.22 0 0 0 0.598-4.513q0.257-2.146 0.429-4.069a116.15 116.15 0 0 0 5e-3 -0.061q1.118 0.086 1.892 0.086h1.806a84.908 84.908 0 0 0 0.976-6e-3q0.436-5e-3 0.923-0.014a170.23 170.23 0 0 0 1.025-0.023q1.72-0.043 3.44-0.129t3.698-0.172q1.204 6.02 2.15 11.61 0.946 4.902 1.935 10.062a578.85 578.85 0 0 0 0.712 3.652q0.283 1.431 0.546 2.711a289.35 289.35 0 0 0 0.505 2.409 298.05 298.05 0 0 0 0.317-1.612q0.215-1.105 0.457-2.387 0.43-2.279 0.946-4.773t0.989-5.031 0.989-5.031a6120.5 6120.5 0 0 1 2.333-10.784 6677.2 6677.2 0 0 1 0.161-0.74l10.492-1.29q-2.924 13.158-5.16 24.94-1.032 5.074-2.021 10.277a1096.9 1096.9 0 0 0-1.411 7.563 960.1 960.1 0 0 0-0.438 2.413q-0.86 4.773-1.462 8.858-0.587 3.986-0.929 6.703a173.6 173.6 0 0 0-0.017 0.134 1.249 1.249 0 0 0-0.15 0.014q-0.439 0.059-1.871 0.373-1.763 0.387-4.042 0.903l-4.558 1.032a52.266 52.266 0 0 0-1.067 0.253q-1.127 0.28-1.882 0.533a10.891 10.891 0 0 0-0.448 0.16q-0.516-6.88-1.118-13.072-0.258-2.666-0.559-5.461a220.73 220.73 0 0 0-0.476-4.072 196.49 196.49 0 0 0-0.169-1.303q-0.344-2.58-0.688-4.816t-0.688-3.87a73.016 73.016 0 0 1-0.218 1.298q-0.201 1.142-0.47 2.486-0.43 2.15-0.86 4.558t-0.86 5.031a108.5 108.5 0 0 1-0.693 3.814 96.708 96.708 0 0 1-0.253 1.217 1080.6 1080.6 0 0 1-1.774 8.933 1231.5 1231.5 0 0 1-0.634 3.107zm76.11 0-12.556 2.924a3102.1 3102.1 0 0 0 4.317-21.079 2806.4 2806.4 0 0 0 0.585-2.915 817.99 817.99 0 0 1 1.604-8.992 906.13 906.13 0 0 1 0.245-1.328q0.989-5.332 1.849-10.535a506.32 506.32 0 0 0 1.193-7.563 442.24 442.24 0 0 0 0.355-2.413 189.22 189.22 0 0 0 0.598-4.513q0.257-2.146 0.429-4.069a116.15 116.15 0 0 0 5e-3 -0.061q1.118 0.086 1.892 0.086h1.806a84.908 84.908 0 0 0 0.976-6e-3q0.436-5e-3 0.923-0.014a170.23 170.23 0 0 0 1.025-0.023q1.72-0.043 3.44-0.129t3.698-0.172q1.204 6.02 2.15 11.61 0.946 4.902 1.935 10.062a578.85 578.85 0 0 0 0.712 3.652q0.283 1.431 0.546 2.711a289.35 289.35 0 0 0 0.505 2.409 298.05 298.05 0 0 0 0.317-1.612q0.215-1.105 0.457-2.387 0.43-2.279 0.946-4.773t0.989-5.031 0.989-5.031a6120.5 6120.5 0 0 1 2.333-10.784 6677.2 6677.2 0 0 1 0.161-0.74l10.492-1.29q-2.924 13.158-5.16 24.94-1.032 5.074-2.021 10.277a1096.9 1096.9 0 0 0-1.411 7.563 960.1 960.1 0 0 0-0.438 2.413q-0.86 4.773-1.462 8.858-0.587 3.986-0.929 6.703a173.6 173.6 0 0 0-0.017 0.134 1.249 1.249 0 0 0-0.15 0.014q-0.439 0.059-1.871 0.373-1.763 0.387-4.042 0.903l-4.558 1.032a52.266 52.266 0 0 0-1.067 0.253q-1.127 0.28-1.882 0.533a10.891 10.891 0 0 0-0.448 0.16q-0.516-6.88-1.118-13.072-0.258-2.666-0.559-5.461a220.73 220.73 0 0 0-0.476-4.072 196.49 196.49 0 0 0-0.169-1.303q-0.344-2.58-0.688-4.816t-0.688-3.87a73.016 73.016 0 0 1-0.218 1.298q-0.201 1.142-0.47 2.486-0.43 2.15-0.86 4.558t-0.86 5.031a108.5 108.5 0 0 1-0.693 3.814 96.708 96.708 0 0 1-0.253 1.217 1080.6 1080.6 0 0 1-1.774 8.933 1231.5 1231.5 0 0 1-0.634 3.107zm-282.25-0.086-13.244 2.752q2.408-12.04 4.644-23.478 0.86-4.902 1.806-10.191t1.763-10.449a1331.6 1331.6 0 0 0 1.364-8.8 1213.9 1213.9 0 0 0 0.184-1.219q0.731-4.859 1.161-8.815a124.62 124.62 0 0 1 1.903 0.097 97.613 97.613 0 0 1 1.752 0.118q1.677 0.129 3.311 0.215t3.311 0.129a126.52 126.52 0 0 0 1.752 0.032 161.94 161.94 0 0 0 1.903 0.011q-1.462 6.106-2.881 12.212t-2.623 12.298l8.514-0.946a401.7 401.7 0 0 0 1.661-8.941 360.86 360.86 0 0 0 0.489-2.884q0.946-5.719 2.494-11.825a46.502 46.502 0 0 1 2.085-0.312 61.434 61.434 0 0 1 2.301-0.247 855.97 855.97 0 0 1 2.322-0.204 678.86 678.86 0 0 1 2.15-0.183 667.66 667.66 0 0 0 1.457-0.123q0.57-0.049 1.076-0.093a319.85 319.85 0 0 0 0.95-0.085l1.419-0.129a110.45 110.45 0 0 0-1.314 4.585 138.91 138.91 0 0 0-0.965 3.886 406.24 406.24 0 0 0-1.848 8.315 448.65 448.65 0 0 0-0.259 1.231q-1.032 4.945-1.978 10.019t-1.72 9.632q-1.892 10.922-3.526 22.36l-13.416 1.548q1.118-5.16 1.978-10.062a1387.3 1387.3 0 0 0 1.314-6.385 1559.8 1559.8 0 0 0 0.449-2.215q0.903-4.472 1.419-7.654l-8.342 0.774a1101.9 1101.9 0 0 1-0.568 3.057q-0.294 1.569-0.625 3.322a1958.6 1958.6 0 0 1-0.226 1.189q-0.817 4.3-1.505 8.17l-1.892 9.288zm38.528 0.602-13.932 2.064q2.58-12.04 4.816-23.392 0.86-4.902 1.806-10.148t1.763-10.406a409.24 409.24 0 0 0 1.298-8.8 371.61 371.61 0 0 0 0.164-1.219 231.03 231.03 0 0 0 0.57-4.633 168.56 168.56 0 0 0 0.419-4.182q1.978 0.172 4.472 0.301a185.06 185.06 0 0 1 2.408 0.14 148.57 148.57 0 0 1 2.236 0.161q2.58 0.172 5.16 0.172a6.898 6.898 0 0 0-0.045 0.194q-0.062 0.285-0.154 0.776a67.193 67.193 0 0 0-0.059 0.32 150.04 150.04 0 0 1-0.141 0.764q-0.128 0.682-0.289 1.515a289.54 289.54 0 0 0-0.269 1.408 391.73 391.73 0 0 0-0.29 1.559q-0.301 1.634-0.645 3.268l-1.548 8.514 0.516-0.086a139.53 139.53 0 0 1 0.476-0.755q0.782-1.234 1.975-3.072 1.591-2.451 3.311-5.203a473.9 473.9 0 0 1 2.532-4.007 424.56 424.56 0 0 1 0.822-1.282 403.54 403.54 0 0 0 1.153-1.8q0.45-0.707 0.85-1.343a202.16 202.16 0 0 0 0.749-1.2q4.3-0.344 8.6-0.774t8.6-1.118q-4.042 5.418-7.826 10.664a249.46 249.46 0 0 0-3.102 4.344 271.82 271.82 0 0 0-0.209 0.3q-1.677 2.408-3.311 4.73a195.49 195.49 0 0 0-1.58 2.279 168.95 168.95 0 0 0-1.473 2.193 187.8 187.8 0 0 0-1.344 2.064 140.68 140.68 0 0 0-1.193 1.892q1.892 8.686 4.472 16.77t5.246 16.512q-1.978-0.086-4.042-0.129t-4.042-0.043a267.41 267.41 0 0 0-3.644 0.024 240.11 240.11 0 0 0-1.172 0.019 294.26 294.26 0 0 0-3.58 0.089 327.49 327.49 0 0 0-1.236 0.04 1343.1 1343.1 0 0 0-0.806-5.73 1552 1552 0 0 0-0.871-6.009 1552.1 1552.1 0 0 1-0.871-6.009 1343 1343 0 0 1-0.806-5.73l-1.548 1.806q-0.414 1.774-0.889 4.117a251.11 251.11 0 0 0-0.444 2.247 4093 4093 0 0 1-1.072 5.531 3681.3 3681.3 0 0 1-0.347 1.779 1036.4 1036.4 0 0 1-1.42 7.422 1137.1 1137.1 0 0 1-0.214 1.092zm-93.912-59.512 13.072-0.86-0.43 2.236q-0.385 2-0.976 5.17a1931.1 1931.1 0 0 0-0.142 0.764 550.9 550.9 0 0 0-0.673 3.694q-0.348 1.943-0.724 4.11a928.9 928.9 0 0 0-0.108 0.624 347.56 347.56 0 0 1-1.346 7.313 393.76 393.76 0 0 1-0.503 2.534q-1.032 5.117-2.021 10.062t-1.935 9.073a33.07 33.07 0 0 1-1.346 4.274q-0.883 2.232-2.042 4.054a21.05 21.05 0 0 1-9e-3 0.014 22.488 22.488 0 0 1-3.296 4.079 19.749 19.749 0 0 1-1.864 1.597 20.599 20.599 0 0 1-5.696 3.064 19.473 19.473 0 0 1-0.625 0.204q-3.354 1.032-6.708 1.032a13.147 13.147 0 0 1-3.239-0.418 15.288 15.288 0 0 1-0.803-0.227q-2.064-0.645-3.698-1.935a10.291 10.291 0 0 1-2.423-2.769 12.023 12.023 0 0 1-0.286-0.499 8.706 8.706 0 0 1-0.924-2.741 11.517 11.517 0 0 1-0.151-1.903v-0.688a2.778 2.778 0 0 1 0-5e-3 2.828 2.828 0 0 1 0.086-0.683q0.344-3.526 1.118-8.514t1.634-10.406 1.892-10.879a1944.3 1944.3 0 0 0 0.978-5.214 1439.3 1439.3 0 0 0 0.871-4.719 616.36 616.36 0 0 1 0.395-2.142q0.554-2.973 0.995-5.153a210.78 210.78 0 0 1 0.029-0.144 460.86 460.86 0 0 1 0.211-1.033q0.423-2.063 0.563-2.622 1.806-0.172 4.3-0.43t4.644-0.43q2.666-0.258 5.246-0.516-2.236 10.406-3.956 18.834-0.774 3.612-1.505 7.224t-1.376 6.622a5392.8 5392.8 0 0 1-0.46 2.143q-0.181 0.844-0.346 1.61a2891.2 2891.2 0 0 1-0.312 1.45 2119.4 2119.4 0 0 1-0.226 1.045q-0.277 1.282-0.483 2.225a662.31 662.31 0 0 1-0.065 0.299q-0.286 1.307-0.65 3.275a188.26 188.26 0 0 0-0.038 0.208q-0.374 2.037-0.387 3.712a15.456 15.456 0 0 0 0 0.115 4.528 4.528 0 0 0 0.111 1.031 3.252 3.252 0 0 0 0.577 1.248q0.688 0.903 1.72 0.903a2.94 2.94 0 0 0 2.222-0.949 3.752 3.752 0 0 0 0.186-0.212 9.544 9.544 0 0 0 1.041-1.591 12.22 12.22 0 0 0 0.55-1.204q0.645-1.634 0.946-3.311a56.693 56.693 0 0 1 0.148-0.793q0.218-1.12 0.411-1.83 0.516-2.494 1.161-5.547t1.29-6.364 1.29-6.751 1.247-6.708a707.71 707.71 0 0 0 2.493-13.639 776.02 776.02 0 0 0 0.345-2.013zm5.676 53.922 6.364-12.47a7.575 7.575 0 0 0 0.669 1.022q0.359 0.467 0.819 0.94a13.66 13.66 0 0 0 0.318 0.317q1.204 1.161 2.709 2.021t3.01 1.419 2.709 0.559a6.881 6.881 0 0 0 1.458-0.162 8.393 8.393 0 0 0 0.692-0.182q1.118-0.344 2.064-1.032a5.953 5.953 0 0 0 1.064-0.983 5.202 5.202 0 0 0 0.441-0.608 3.727 3.727 0 0 0 0.524-1.524 4.744 4.744 0 0 0 0.035-0.583 6.156 6.156 0 0 0-1.169-3.602 7.664 7.664 0 0 0-0.164-0.225 17.762 17.762 0 0 0-1.918-2.137 21.968 21.968 0 0 0-1.393-1.217 79.644 79.644 0 0 0-2.882-2.208 94.12 94.12 0 0 0-1.418-1.017 40.352 40.352 0 0 1-3.705-2.935 36.429 36.429 0 0 1-0.552-0.505q-1.935-1.806-3.311-4.042t-1.376-4.988a14.421 14.421 0 0 1 2.661-8.334 17.328 17.328 0 0 1 5e-3 -8e-3q2.666-3.87 6.665-6.665t8.729-4.429a31.241 31.241 0 0 1 4.741-1.251 24.062 24.062 0 0 1 4.203-0.383 17.241 17.241 0 0 1 3.338 0.314 15.373 15.373 0 0 1 1.048 0.245q2.064 0.559 3.569 1.806a8.994 8.994 0 0 1 2.233 2.79 10.481 10.481 0 0 1 0.175 0.349 8.55 8.55 0 0 1 0.633 1.909q0.27 1.269 0.27 2.821 0 1.204-0.215 2.408a46.56 46.56 0 0 0-0.252 1.572 56.151 56.151 0 0 0-0.135 1.008l-12.47 3.612q0.172-0.688 0.301-1.376t0.129-1.376a11.699 11.699 0 0 0-0.068-1.305q-0.179-1.592-0.835-2.436a3.021 3.021 0 0 0-0.965-0.831q-0.62-0.33-1.4-0.33-0.688 0-1.677 0.516a10.549 10.549 0 0 0-1.236 0.763 13.049 13.049 0 0 0-0.742 0.57q-0.989 0.817-1.677 1.935t-0.688 2.408a6.045 6.045 0 0 0 0.214 1.647 4.744 4.744 0 0 0 0.947 1.793 13.675 13.675 0 0 0 1.623 1.613 17.307 17.307 0 0 0 1.258 0.967 72.281 72.281 0 0 0 2.268 1.522 86.866 86.866 0 0 0 1.473 0.929 15.771 15.771 0 0 1 2.918 2.338 18.566 18.566 0 0 1 0.823 0.887 14.73 14.73 0 0 1 1.736 2.499 19.887 19.887 0 0 1 1.145 2.446 15.101 15.101 0 0 1 0.752 2.673q0.256 1.341 0.351 2.901a31.813 31.813 0 0 1 0.058 1.951 21.666 21.666 0 0 1-0.652 5.401 18.572 18.572 0 0 1-1.197 3.328q-1.849 3.913-4.988 6.751a21.969 21.969 0 0 1-6.608 4.084 25.266 25.266 0 0 1-0.788 0.302q-4.257 1.548-9.159 1.548a13.636 13.636 0 0 1-4.945-0.955 17.121 17.121 0 0 1-1.935-0.894 17.523 17.523 0 0 1-3.168-2.215q-1.323-1.147-2.604-2.641a31.95 31.95 0 0 1-0.85-1.035zm164.95 4.042-13.932 3.612q2.322-11.438 4.472-22.36 0.774-4.644 1.72-9.675t1.763-9.976 1.548-9.546a222.93 222.93 0 0 0 0.656-4.397 164.86 164.86 0 0 0 0.505-3.988 57.953 57.953 0 0 1 7.106-1.742 68.274 68.274 0 0 1 3.472-0.537q5.676-0.731 11.266-0.731 2.531 0 4.401 0.441a11.086 11.086 0 0 1 1.146 0.333 9.787 9.787 0 0 1 1.71 0.784 7.013 7.013 0 0 1 1.73 1.409q1.247 1.419 1.763 3.311a14.33 14.33 0 0 1 0.417 2.265 18.537 18.537 0 0 1 0.099 1.949q0 3.44-1.204 6.751t-3.225 6.278-4.644 5.418a25.156 25.156 0 0 1-5.072 3.701 23.454 23.454 0 0 1-0.561 0.298 472.84 472.84 0 0 1 1.602 3.601 605.46 605.46 0 0 1 1.709 3.924 833.53 833.53 0 0 1 1.709 3.988 712.98 712.98 0 0 1 1.602 3.795q1.72 4.3 3.526 8.6l-13.33 4.644q-1.72-5.504-3.096-10.32a247.26 247.26 0 0 1-1.129-3.822 269.51 269.51 0 0 1-0.075-0.263 375.21 375.21 0 0 1-0.58-2.053 317.7 317.7 0 0 1-0.538-1.946q-0.516-1.892-0.86-3.397a31.067 31.067 0 0 1-0.19-0.886q-0.175-0.885-0.236-1.523a8.911 8.911 0 0 1-4e-3 -0.042l-1.118 0.344a511.57 511.57 0 0 1-0.417 2.197q-0.187 0.971-0.394 2.034a914.42 914.42 0 0 1-0.436 2.219 341.38 341.38 0 0 0-1.024 5.402 304.18 304.18 0 0 0-0.309 1.736q-0.774 4.042-1.548 8.17zm-27.692-11.18h-7.482l-3.44 12.384a176.01 176.01 0 0 1-1.516 0.2q-0.672 0.085-1.411 0.175a320.96 320.96 0 0 1-1.545 0.184 4280.3 4280.3 0 0 1-2.494 0.29 3451.7 3451.7 0 0 1-2.322 0.269q-2.752 0.344-5.418 0.688 3.44-11.438 6.794-22.532a34036 34036 0 0 1 2.137-7.208 38843 38843 0 0 1 0.744-2.51q1.505-5.074 3.01-10.105a3981.1 3981.1 0 0 0 2.185-7.329 3523.5 3523.5 0 0 0 0.696-2.346q1.376-4.644 2.408-8.514 5.848-0.43 11.911-1.032t11.825-1.634a222.95 222.95 0 0 0-0.132 1.459q-0.201 2.314-0.427 5.378a395.45 395.45 0 0 0-0.29 4.268 505.08 505.08 0 0 0-0.269 4.633q-0.258 4.816-0.516 10.062t-0.516 10.32q-0.43 11.868-0.946 25.198-2.58 0.43-5.16 0.688-2.15 0.344-4.73 0.774l-4.644 0.774q0.344-2.838 0.688-5.59 0.258-2.408 0.473-4.816a539.65 539.65 0 0 1 0.155-1.709q0.125-1.344 0.232-2.419zm92.192 0h-7.482l-3.44 12.384a176.01 176.01 0 0 1-1.516 0.2q-0.672 0.085-1.411 0.175a320.96 320.96 0 0 1-1.545 0.184 4280.3 4280.3 0 0 1-2.494 0.29 3451.7 3451.7 0 0 1-2.322 0.269q-2.752 0.344-5.418 0.688 3.44-11.438 6.794-22.532a34036 34036 0 0 1 2.137-7.208 38843 38843 0 0 1 0.744-2.51q1.505-5.074 3.01-10.105a3981.1 3981.1 0 0 0 2.185-7.329 3523.5 3523.5 0 0 0 0.696-2.346q1.376-4.644 2.408-8.514 5.848-0.43 11.911-1.032t11.825-1.634a222.95 222.95 0 0 0-0.132 1.459q-0.201 2.314-0.427 5.378a395.45 395.45 0 0 0-0.29 4.268 505.08 505.08 0 0 0-0.269 4.633q-0.258 4.816-0.516 10.062t-0.516 10.32q-0.43 11.868-0.946 25.198-2.58 0.43-5.16 0.688-2.15 0.344-4.73 0.774l-4.644 0.774q0.344-2.838 0.688-5.59 0.258-2.408 0.473-4.816a539.65 539.65 0 0 1 0.155-1.709q0.125-1.344 0.232-2.419zm76.11 0h-7.482l-3.44 12.384a176.01 176.01 0 0 1-1.516 0.2q-0.672 0.085-1.411 0.175a320.96 320.96 0 0 1-1.545 0.184 4280.3 4280.3 0 0 1-2.494 0.29 3451.7 3451.7 0 0 1-2.322 0.269q-2.752 0.344-5.418 0.688 3.44-11.438 6.794-22.532a34036 34036 0 0 1 2.137-7.208 38843 38843 0 0 1 0.744-2.51q1.505-5.074 3.01-10.105a3981.1 3981.1 0 0 0 2.185-7.329 3523.5 3523.5 0 0 0 0.696-2.346q1.376-4.644 2.408-8.514 5.848-0.43 11.911-1.032t11.825-1.634a222.95 222.95 0 0 0-0.132 1.459q-0.201 2.314-0.427 5.378a395.45 395.45 0 0 0-0.29 4.268 505.08 505.08 0 0 0-0.269 4.633q-0.258 4.816-0.516 10.062t-0.516 10.32q-0.43 11.868-0.946 25.198-2.58 0.43-5.16 0.688-2.15 0.344-4.73 0.774l-4.644 0.774q0.344-2.838 0.688-5.59 0.258-2.408 0.473-4.816a539.65 539.65 0 0 1 0.155-1.709q0.125-1.344 0.232-2.419zm95.571-23.507a35.159 35.159 0 0 0 0.491-5.733q0-3.87-0.946-7.31a19.442 19.442 0 0 0-0.324-1.06 16.546 16.546 0 0 0-2.643-4.96 13.007 13.007 0 0 0-1.532-1.642 14.339 14.339 0 0 0-3.714-2.4q-1.927-0.874-4.362-1.225a24.566 24.566 0 0 0-3.507-0.237q-3.956 0-7.74 0.602t-7.482 1.29q-0.259 1.856-0.594 3.929a255.55 255.55 0 0 1-0.739 4.327 1323.8 1323.8 0 0 0-0.411 2.306 1514.5 1514.5 0 0 0-1.266 7.24q-0.86 4.988-1.806 10.105t-1.806 9.847q-2.236 11.266-4.558 23.134 1.204 0.172 2.408 0.301t2.408 0.129q5.762 0 10.879-2.064t9.417-5.461 7.697-7.912 5.719-9.46 3.612-9.976a44.217 44.217 0 0 0 0.799-3.77zm-456.34 35.375-14.878 2.924q2.58-11.61 4.902-22.704 0.946-4.644 1.978-9.804t1.978-10.148 1.806-9.632 1.462-8.514a69.885 69.885 0 0 1 4.827-1.315 64.059 64.059 0 0 1 0.075-0.018q2.408-0.559 4.945-0.989a31.206 31.206 0 0 1 2.907-0.359 25.273 25.273 0 0 1 1.866-0.071q3.244 0 5.611 0.906a10.508 10.508 0 0 1 0.882 0.384 11.918 11.918 0 0 1 3.26 2.321 11.088 11.088 0 0 1 0.997 1.162 13.322 13.322 0 0 1 2.03 4.043 15.856 15.856 0 0 1 0.292 1.074 25.976 25.976 0 0 1 0.621 4.224 30.83 30.83 0 0 1 0.067 2.054q0 4.816-1.763 9.288t-4.73 7.955-6.794 5.547a16.717 16.717 0 0 1-6.672 2.014 16.275 16.275 0 0 1-1.283 0.05h-0.946q-0.688 2.924-1.29 6.364t-1.032 6.364q-0.602 3.44-1.118 6.88zm436.54-47.816q-0.946 5.074-1.978 9.718t-2.064 9.374-2.064 9.89-1.978 11.266a16.016 16.016 0 0 0 2.153-1.737 21.994 21.994 0 0 0 1.846-2.004 33.849 33.849 0 0 0 2.278-3.154 42.3 42.3 0 0 0 1.377-2.307q1.72-3.096 3.139-6.536a86.392 86.392 0 0 0 1.911-5.063 76.355 76.355 0 0 0 0.54-1.645q1.032-3.268 1.591-6.106 0.428-2.173 0.528-3.892a17.361 17.361 0 0 0 0.031-1.01q0-3.182-1.763-4.988a5.347 5.347 0 0 0-2.013-1.266q-1.465-0.54-3.534-0.54zm-244.15 5.762-5.332 21.586q0.344 0 1.247-0.043t1.892-0.086 1.849-0.086a17.083 17.083 0 0 0 0.398-0.024q0.548-0.04 0.806-0.105a6.702 6.702 0 0 1 8e-3 -0.304q0.022-0.468 0.101-1.266a55.136 55.136 0 0 1 0.02-0.193 106.87 106.87 0 0 0 0.121-1.245q0.068-0.748 0.137-1.593a315.88 315.88 0 0 1 0.14-1.666 409.98 409.98 0 0 1 0.161-1.817q0.172-1.892 0.344-3.698 0.344-4.386 0.86-9.46l0.516-7.482-1.29 0.086-1.978 7.396zm92.192 0-5.332 21.586q0.344 0 1.247-0.043t1.892-0.086 1.849-0.086a17.083 17.083 0 0 0 0.398-0.024q0.548-0.04 0.806-0.105a6.702 6.702 0 0 1 8e-3 -0.304q0.022-0.468 0.101-1.266a55.136 55.136 0 0 1 0.02-0.193 106.87 106.87 0 0 0 0.121-1.245q0.068-0.748 0.137-1.593a315.88 315.88 0 0 1 0.14-1.666 409.98 409.98 0 0 1 0.161-1.817q0.172-1.892 0.344-3.698 0.344-4.386 0.86-9.46l0.516-7.482-1.29 0.086-1.978 7.396zm76.11 0-5.332 21.586q0.344 0 1.247-0.043t1.892-0.086 1.849-0.086a17.083 17.083 0 0 0 0.398-0.024q0.548-0.04 0.806-0.105a6.702 6.702 0 0 1 8e-3 -0.304q0.022-0.468 0.101-1.266a55.136 55.136 0 0 1 0.02-0.193 106.87 106.87 0 0 0 0.121-1.245q0.068-0.748 0.137-1.593a315.88 315.88 0 0 1 0.14-1.666 409.98 409.98 0 0 1 0.161-1.817q0.172-1.892 0.344-3.698 0.344-4.386 0.86-9.46l0.516-7.482-1.29 0.086-1.978 7.396zm-351.57-8.17q-0.946 5.676-1.892 10.75t-2.064 10.836a5.704 5.704 0 0 0 1.229-0.474q0.554-0.286 1.127-0.707a11.375 11.375 0 0 0 0.525-0.41 12.058 12.058 0 0 0 1.538-1.543 16.465 16.465 0 0 0 1.257-1.725 16.553 16.553 0 0 0 1.411-2.778 20.769 20.769 0 0 0 0.653-1.909q0.774-2.666 0.774-5.59a11.421 11.421 0 0 0-0.132-1.795q-0.15-0.943-0.472-1.698a4.975 4.975 0 0 0-0.815-1.323q-1.419-1.634-3.139-1.634zm220.07 2.15-2.752 13.674a7.398 7.398 0 0 0 1.21-0.24q1.218-0.34 2.741-1.111a23.825 23.825 0 0 0 0.048-0.025q2.365-1.204 4.515-2.881t3.698-3.483 1.548-3.182a2.408 2.408 0 0 0-0.085-0.655 1.806 1.806 0 0 0-0.517-0.85q-0.511-0.474-1.362-0.763a6.128 6.128 0 0 0-0.315-0.097q-1.075-0.301-2.365-0.387a39.629 39.629 0 0 0-2.323-0.085 43.524 43.524 0 0 0-0.343-1e-3q-0.946 0-1.935 0.043a50.292 50.292 0 0 1-0.824 0.029q-0.378 0.011-0.717 0.013a29.525 29.525 0 0 1-0.222 1e-3z" vector-effect="non-scaling-stroke"/></g></def><use x="80px" y="100px" href="#hi"/><use x="150px" y="150px" href="#iam"/><use x="250px" y="125px" href="#name"/></svg>
